<svg version="1.1" id="Layer_1" xmlns="http://www.w3.org/2000/svg" xmlns:xlink="http://www.w3.org/1999/xlink" x="0px" y="0px"
	 width="100%" viewBox="0 0 400 300" enable-background="new 0 0 400 300" xml:space="preserve">
<path fill="#444444" opacity="1.000000" stroke="none" 
	d="
M289.000000,301.000000 
	C192.666687,301.000000 96.833366,301.000000 1.000039,301.000000 
	C1.000026,201.000031 1.000026,101.000069 1.000013,1.000079 
	C134.333267,1.000053 267.666534,1.000053 400.999878,1.000026 
	C400.999908,100.999916 400.999908,200.999832 400.999939,300.999878 
	C363.833344,301.000000 326.666656,301.000000 289.000000,301.000000 
M266.499146,244.365936 
	C273.410309,244.365936 280.321472,244.365936 286.949524,244.365936 
	C286.949524,233.479721 286.949524,223.423218 286.949524,213.505341 
	C283.418274,213.505341 280.335754,213.505341 276.870605,213.505341 
	C276.870605,220.439774 276.870605,227.039139 276.870605,233.763153 
	C221.400528,233.763153 166.327209,233.763153 111.057419,233.763153 
	C111.057419,178.461304 111.057419,123.399788 111.057419,68.099487 
	C166.368912,68.099487 221.434906,68.099487 276.942688,68.099487 
	C276.942688,74.868256 276.942688,81.458153 276.942688,88.231720 
	C280.596191,88.231720 283.803833,88.231720 287.041870,88.231720 
	C287.041870,77.786560 287.041870,67.703659 287.041870,57.684685 
	C224.622147,57.684685 162.551270,57.684685 100.388580,57.684685 
	C100.388580,119.992958 100.388580,181.920914 100.388580,244.365906 
	C155.578049,244.365906 210.538651,244.365906 266.499146,244.365936 
M195.607758,207.955338 
	C211.397400,210.200150 226.432465,207.867722 240.733200,200.711960 
	C243.096252,199.529556 244.130524,198.200943 244.065674,195.395477 
	C243.853882,186.234482 244.324722,177.048920 243.875732,167.905090 
	C243.538132,161.029922 244.850418,155.726776 252.161667,153.538864 
	C252.244446,153.514069 252.171967,152.970398 252.171967,152.716309 
	C236.787262,152.716309 221.442307,152.716309 206.097336,152.716309 
	C207.971771,154.356705 209.973495,154.967712 211.988754,155.530365 
	C218.760559,157.421005 219.981903,158.995972 219.996567,166.063934 
	C220.014191,174.563156 220.001877,183.062469 220.001465,191.561737 
	C220.000839,204.311722 217.362289,206.608978 204.520004,205.007919 
	C203.534927,204.885101 202.554062,204.671875 201.593674,204.416336 
	C189.417572,201.176498 183.220749,192.197174 180.115326,180.914673 
	C174.843979,161.763107 174.787384,142.358994 179.593445,123.125084 
	C180.892151,117.927643 183.460342,112.773720 186.526703,108.348846 
	C192.843231,99.233803 202.313110,96.295105 213.111603,96.358543 
	C223.499420,96.419594 229.073593,102.351593 232.861603,111.121635 
	C234.438858,114.773300 236.554550,118.196617 238.500015,121.682106 
	C238.996323,122.571259 239.777222,123.301552 240.956085,124.758102 
	C240.956085,117.396576 240.789993,110.970306 241.028473,104.559090 
	C241.142105,101.504494 239.920151,99.823586 237.229660,99.034645 
	C230.716217,97.124695 224.278488,94.318970 217.628662,93.632034 
	C198.238144,91.629013 179.737122,94.637527 165.358139,109.113716 
	C148.215149,126.372551 146.186371,147.764832 152.111588,169.996841 
	C157.859985,191.565353 173.044815,203.663605 195.607758,207.955338 
z"/>
<path fill="#F8F8F8" opacity="1.000000" stroke="none" 
	d="
M265.999207,244.365921 
	C210.538651,244.365906 155.578049,244.365906 100.388580,244.365906 
	C100.388580,181.920914 100.388580,119.992958 100.388580,57.684685 
	C162.551270,57.684685 224.622147,57.684685 287.041870,57.684685 
	C287.041870,67.703659 287.041870,77.786560 287.041870,88.231720 
	C283.803833,88.231720 280.596191,88.231720 276.942688,88.231720 
	C276.942688,81.458153 276.942688,74.868256 276.942688,68.099487 
	C221.434906,68.099487 166.368912,68.099487 111.057419,68.099487 
	C111.057419,123.399788 111.057419,178.461304 111.057419,233.763153 
	C166.327209,233.763153 221.400528,233.763153 276.870605,233.763153 
	C276.870605,227.039139 276.870605,220.439774 276.870605,213.505341 
	C280.335754,213.505341 283.418274,213.505341 286.949524,213.505341 
	C286.949524,223.423218 286.949524,233.479721 286.949524,244.365936 
	C280.321472,244.365936 273.410309,244.365936 265.999207,244.365921 
z"/>
<path fill="#FCFCFC" opacity="1.000000" stroke="none" 
	d="
M195.176331,207.904785 
	C173.044815,203.663605 157.859985,191.565353 152.111588,169.996841 
	C146.186371,147.764832 148.215149,126.372551 165.358139,109.113716 
	C179.737122,94.637527 198.238144,91.629013 217.628662,93.632034 
	C224.278488,94.318970 230.716217,97.124695 237.229660,99.034645 
	C239.920151,99.823586 241.142105,101.504494 241.028473,104.559090 
	C240.789993,110.970306 240.956085,117.396576 240.956085,124.758102 
	C239.777222,123.301552 238.996323,122.571259 238.500015,121.682106 
	C236.554550,118.196617 234.438858,114.773300 232.861603,111.121635 
	C229.073593,102.351593 223.499420,96.419594 213.111603,96.358543 
	C202.313110,96.295105 192.843231,99.233803 186.526703,108.348846 
	C183.460342,112.773720 180.892151,117.927643 179.593445,123.125084 
	C174.787384,142.358994 174.843979,161.763107 180.115326,180.914673 
	C183.220749,192.197174 189.417572,201.176498 201.593674,204.416336 
	C202.554062,204.671875 203.534927,204.885101 204.520004,205.007919 
	C217.362289,206.608978 220.000839,204.311722 220.001465,191.561737 
	C220.001877,183.062469 220.014191,174.563156 219.996567,166.063934 
	C219.981903,158.995972 218.760559,157.421005 211.988754,155.530365 
	C209.973495,154.967712 207.971771,154.356705 206.097336,152.716309 
	C221.442307,152.716309 236.787262,152.716309 252.171967,152.716309 
	C252.171967,152.970398 252.244446,153.514069 252.161667,153.538864 
	C244.850418,155.726776 243.538132,161.029922 243.875732,167.905090 
	C244.324722,177.048920 243.853882,186.234482 244.065674,195.395477 
	C244.130524,198.200943 243.096252,199.529556 240.733200,200.711960 
	C226.432465,207.867722 211.397400,210.200150 195.176331,207.904785 
z"/>
</svg>